<?xml version="1.0" encoding="iso-8859-1"?>
<!-- Generator: Adobe Illustrator 19.0.0, SVG Export Plug-In . SVG Version: 6.00 Build 0)  -->
<svg xmlns="http://www.w3.org/2000/svg" xmlns:xlink="http://www.w3.org/1999/xlink" version="1.1" id="Layer_1" x="0px" y="0px" viewBox="0 0 512 512" style="enable-background:new 0 0 512 512;" xml:space="preserve" width="512px" height="512px">
<g>
	<g>
		<path d="M448.775,190.407c-6.243,0-12.462,0.944-18.414,2.749c-10.897-25.568-27.456-48.644-48.346-67.225    c-4.382-3.899-11.093-3.505-14.988,0.877c-3.898,4.381-3.505,11.092,0.877,14.988c21.002,18.681,37.081,42.464,46.501,68.789    c3.554,9.906,6.174,20.246,7.792,30.728c1.3,8.46,1.958,17.115,1.958,25.727c0,0.838-0.011,1.665-0.02,2.475    c-0.149,10.63-1.306,21.242-3.445,31.554c-9.359,45.415-37.866,85.094-76.99,109.082c2.618-8.574,3.948-17.474,3.948-26.578    c0-7.729-0.965-15.339-2.879-22.74c16.644-4.822,31.693-14.362,43.245-27.583c14.482-16.571,22.455-37.831,22.455-59.861    c0-50.206-40.841-91.052-91.042-91.052c-23.674,0-45.986,9.045-62.832,25.159c-16.845-16.116-39.153-25.159-62.822-25.159    c-50.201,0-91.042,40.846-91.042,91.052c0,22.032,7.972,43.289,22.449,59.861c11.551,13.223,26.599,22.762,43.244,27.584    c-1.908,7.394-2.872,15.002-2.872,22.739c0,9.109,1.342,18.012,3.963,26.592c-39.264-24.054-67.817-63.887-77.098-109.499    c-2.149-10.488-3.284-21.328-3.373-32.217v-0.012v-0.006c0-0.039-0.001-0.079-0.001-0.117c-0.008-0.425-0.008-0.85-0.008-1.275    c0-8.216,0.601-16.47,1.788-24.539c1.566-10.699,4.183-21.266,7.786-31.415c23.637-66.754,87.127-111.604,158.048-111.604    c22.126,0.008,43.619,4.259,63.883,12.632c5.423,2.236,11.629-0.339,13.868-5.758c2.239-5.419-0.339-11.628-5.758-13.868    c-15.402-6.364-31.43-10.607-47.894-12.704l19.659-19.66c4.146-4.146,4.146-10.869,0-15.016c-4.147-4.145-10.868-4.145-15.016,0    l-18.185,18.185V47.989c0-5.863-4.754-10.617-10.617-10.617s-10.617,4.754-10.617,10.617v15.244l-18.122-18.122    c-4.146-4.145-10.869-4.145-15.015,0c-4.146,4.146-4.146,10.869,0,15.016L232.515,79.8    c-66.168,8.526-123.629,51.72-149.836,113.672c-6.257-2.019-12.832-3.066-19.454-3.066C28.363,190.407,0,218.775,0,253.643    c0,34.862,28.363,63.225,63.225,63.225c3.71,0,7.378-0.328,10.984-0.96c7.264,27.14,20.623,52.529,39.029,73.987    c20.044,23.368,45.634,41.57,74.134,52.815c17.343,20.321,42.406,31.918,69.223,31.918c26.816,0,51.886-11.6,69.233-31.918    c28.43-11.219,53.968-29.366,73.988-52.655c18.429-21.44,31.818-46.829,39.111-73.962c3.242,0.508,6.529,0.775,9.848,0.775    c34.862,0,63.225-28.363,63.225-63.225C512,218.775,483.637,190.407,448.775,190.407z M72.919,223.281    c-3.106-0.996-6.371-1.532-9.693-1.532c-17.586,0-31.894,14.308-31.894,31.894s14.308,31.894,31.894,31.894    c1.845,0,3.663-0.165,5.443-0.468c0.318,3.362,0.722,6.708,1.218,10.031c-2.19,0.348-4.412,0.533-6.661,0.533    c-23.155,0.001-41.992-18.836-41.992-41.99c0-23.159,18.837-42.002,41.991-42.002c4.181,0,8.328,0.641,12.292,1.853    C74.563,216.729,73.699,219.995,72.919,223.281z M69.116,244.747c-0.721,6.121-1.152,12.313-1.275,18.5    c-1.423,0.684-2.988,1.055-4.616,1.055c-5.878,0-10.66-4.782-10.66-10.66c0-5.878,4.782-10.66,10.66-10.66    C65.371,242.983,67.4,243.606,69.116,244.747z M311.11,427.197c-13.344,16.649-33.214,26.197-54.516,26.197    c-21.304,0-41.17-9.547-54.51-26.203c-0.278-0.346-0.545-0.701-0.815-1.051h110.662    C311.659,426.493,311.391,426.85,311.11,427.197z M321.159,357.019c3.486,8.466,5.252,17.401,5.252,26.558    c0,7.322-1.115,14.467-3.318,21.33H190.108c-2.201-6.861-3.321-14.007-3.321-21.33c0-9.174,1.763-18.109,5.242-26.558    c1.246-3.028,1.026-6.461-0.597-9.305c-1.623-2.844-4.468-4.78-7.708-5.246c-34.067-4.905-59.758-34.6-59.758-69.077    c0-38.498,31.315-69.818,69.808-69.818c21.307,0,41.184,9.569,54.531,26.253c2.014,2.518,5.065,3.985,8.291,3.985    c3.226,0,6.276-1.466,8.29-3.985c13.348-16.684,33.228-26.253,54.542-26.253c38.492,0,69.808,31.321,69.808,69.818    c0,34.476-25.694,64.172-59.769,69.077c-3.241,0.466-6.085,2.403-7.708,5.246C320.134,350.558,319.914,353.991,321.159,357.019z     M448.775,295.634c-1.851,0-3.686-0.12-5.501-0.357c0.5-3.324,0.909-6.669,1.232-10.027c1.408,0.19,2.834,0.288,4.269,0.288    c17.586,0,31.894-14.308,31.894-31.894c0-17.586-14.308-31.894-31.894-31.894c-2.932,0-5.817,0.408-8.585,1.181    c-0.786-3.283-1.658-6.541-2.617-9.768c3.614-0.999,7.356-1.521,11.202-1.521c23.154,0,41.991,18.842,41.991,42.002    C490.766,276.797,471.929,295.634,448.775,295.634z M444.002,244.111c1.458-0.73,3.074-1.128,4.773-1.128    c5.878,0,10.66,4.782,10.66,10.66c0,5.878-4.782,10.66-10.66,10.66c-1.289,0-2.425-0.22-3.419-0.555    C445.243,257.185,444.786,250.613,444.002,244.111z" fill="#FFDA44"/>
	</g>
</g>
<g>
	<g>
		<path d="M356.95,107.106c-0.484-0.305-0.97-0.607-1.459-0.909c-4.99-3.076-11.532-1.522-14.609,3.47    c-3.077,4.992-1.523,11.531,3.47,14.608c0.43,0.264,0.859,0.532,1.287,0.802c1.756,1.106,3.713,1.633,5.645,1.633    c3.527,0,6.978-1.756,8.996-4.962C363.403,116.785,361.912,110.229,356.95,107.106z" fill="#FFDA44"/>
	</g>
</g>
<g>
	<g>
		<path d="M194.633,246.413c-17.265,0-31.31,14.045-31.31,31.31c0,5.863,4.753,10.617,10.617,10.617s10.617-4.754,10.617-10.617    c0-5.556,4.52-10.076,10.076-10.076s10.076,4.52,10.076,10.076c0,5.863,4.753,10.617,10.617,10.617s10.617-4.754,10.617-10.617    C225.943,260.458,211.898,246.413,194.633,246.413z" fill="#FFDA44"/>
	</g>
</g>
<g>
	<g>
		<path d="M327.474,246.413c-17.271,0-31.321,14.045-31.321,31.31c0,5.864,4.754,10.617,10.617,10.617    c5.863,0,10.617-4.754,10.617-10.617c0-5.556,4.525-10.076,10.086-10.076c5.555,0,10.075,4.52,10.075,10.076    c0,5.863,4.754,10.617,10.617,10.617c5.863,0,10.617-4.754,10.617-10.617C358.783,260.458,344.738,246.413,327.474,246.413z" fill="#FFDA44"/>
	</g>
</g>
<g>
	<g>
		<path d="M227.366,316.847c-14.852,0-26.936,12.083-26.936,26.936s12.083,26.936,26.936,26.936    c14.847,0,26.925-12.083,26.925-26.936C254.291,328.93,242.213,316.847,227.366,316.847z M227.366,349.484    c-3.144,0-5.701-2.558-5.701-5.701s2.558-5.701,5.701-5.701c3.138,0,5.691,2.558,5.691,5.701S230.503,349.484,227.366,349.484z" fill="#FFDA44"/>
	</g>
</g>
<g>
	<g>
		<path d="M286.269,316.847c-14.846,0-26.924,12.083-26.924,26.936c0,14.852,12.077,26.936,26.924,26.936    c14.852,0,26.936-12.083,26.936-26.936C313.205,328.93,301.122,316.847,286.269,316.847z M286.269,349.484    c-3.137,0-5.69-2.558-5.69-5.701s2.552-5.701,5.69-5.701c3.144,0,5.701,2.558,5.701,5.701S289.413,349.484,286.269,349.484z" fill="#FFDA44"/>
	</g>
</g>
<g>
</g>
<g>
</g>
<g>
</g>
<g>
</g>
<g>
</g>
<g>
</g>
<g>
</g>
<g>
</g>
<g>
</g>
<g>
</g>
<g>
</g>
<g>
</g>
<g>
</g>
<g>
</g>
<g>
</g>
</svg>
