<?xml version="1.0" encoding="iso-8859-1"?>
<!-- Generator: Adobe Illustrator 19.0.0, SVG Export Plug-In . SVG Version: 6.00 Build 0)  -->
<svg xmlns="http://www.w3.org/2000/svg" xmlns:xlink="http://www.w3.org/1999/xlink" version="1.1" id="Capa_1" x="0px" y="0px" viewBox="0 0 504.986 504.986" style="enable-background:new 0 0 504.986 504.986;" xml:space="preserve" width="512px" height="512px">
<g>
	<g>
		<path d="M252.493,52.603c-31.562,0-56.811,25.249-56.811,56.811s25.951,56.811,56.811,56.811s56.811-25.249,56.811-56.811    C309.304,78.553,284.055,52.603,252.493,52.603z M252.493,138.871c-16.132,0-28.756-12.625-28.756-28.756    c0-16.132,13.326-28.756,28.756-28.756s28.756,12.625,28.756,28.756C281.249,125.545,268.625,138.871,252.493,138.871z" fill="#FFDA44"/>
	</g>
</g>
<g>
	<g>
		<path d="M252.493,338.762c-31.562,0-56.811,25.249-56.811,56.811c0,30.86,25.249,56.811,56.811,56.811    s56.811-25.951,56.811-56.811C309.304,364.712,284.055,338.762,252.493,338.762z M252.493,424.329    c-16.132,0-28.756-13.326-28.756-28.756c0-15.43,12.625-28.756,28.756-28.756c16.131,0,28.756,12.625,28.756,28.756    C281.249,411.003,268.625,424.329,252.493,424.329z" fill="#FFDA44"/>
	</g>
</g>
<g>
	<g>
		<path d="M395.573,195.682c-30.86,0-56.811,25.249-56.811,56.811c0,30.86,25.249,56.811,56.811,56.811    c30.86,0,56.811-25.249,56.811-56.811C452.384,221.633,427.134,195.682,395.573,195.682z M395.573,281.249    c-15.43,0-28.756-12.625-28.756-28.756c0-15.43,12.625-28.756,28.756-28.756c15.43,0,28.756,12.625,28.756,28.756    C424.329,267.923,411.704,281.249,395.573,281.249z" fill="#FFDA44"/>
	</g>
</g>
<g>
	<g>
		<path d="M252.493,195.682c-31.562,0-56.811,25.249-56.811,56.811c0,30.86,25.951,56.811,56.811,56.811    s56.811-25.249,56.811-56.811C309.304,221.633,284.055,195.682,252.493,195.682z M252.493,281.249    c-16.132,0-28.756-12.625-28.756-28.756c0-15.43,13.326-28.756,28.756-28.756s28.756,12.625,28.756,28.756    C281.249,267.923,268.625,281.249,252.493,281.249z" fill="#FFDA44"/>
	</g>
</g>
<g>
	<g>
		<path d="M109.414,195.682c-30.86,0-56.811,25.249-56.811,56.811c0,30.86,25.249,56.811,56.811,56.811s56.811-25.249,56.811-56.811    C166.225,221.633,140.975,195.682,109.414,195.682z M109.414,281.249c-15.43,0-28.756-12.625-28.756-28.756    c0-15.43,12.625-28.756,28.756-28.756c15.43,0,28.756,12.625,28.756,28.756C138.17,267.923,125.545,281.249,109.414,281.249z" fill="#FFDA44"/>
	</g>
</g>
<g>
	<g>
		<path d="M490.959,476.932h-122.74c81.359-42.082,136.767-126.948,136.767-224.438C504.986,112.921,392.066,0,252.493,0    S0,112.921,0,252.493s112.921,252.493,252.493,252.493h238.466c7.715,0,14.027-6.312,14.027-14.027    C504.986,483.244,498.674,476.932,490.959,476.932z M28.055,252.493c0-123.441,100.997-224.438,224.438-224.438    s224.438,100.997,224.438,224.438S375.934,476.932,252.493,476.932S28.055,375.934,28.055,252.493z" fill="#FFDA44"/>
	</g>
</g>
<g>
</g>
<g>
</g>
<g>
</g>
<g>
</g>
<g>
</g>
<g>
</g>
<g>
</g>
<g>
</g>
<g>
</g>
<g>
</g>
<g>
</g>
<g>
</g>
<g>
</g>
<g>
</g>
<g>
</g>
</svg>
